<svg width="1280" height="480" style="stroke-linecap: round; stroke-linejoin: round" version="1.1" xmlns="http://www.w3.org/2000/svg">
<g transform="translate(20.000000, 264.000000)">
<g style="stroke: red; stroke-width: 0.5; fill: none">
<line x1="0.000000" y1="0" x2="0.000000" y2="-208.000000" />
<line x1="76.000000" y1="0" x2="76.000000" y2="-184.000000" />
<line x1="136.800000" y1="0" x2="136.800000" y2="-160.000000" />
<line x1="380.000000" y1="0" x2="380.000000" y2="-208.000000" />
<line x1="432.709677" y1="0" x2="432.709677" y2="-172.000000" />
<line x1="643.548387" y1="0" x2="643.548387" y2="-208.000000" />
<line x1="826.331946" y1="0" x2="826.331946" y2="-172.000000" />
</g>
<g style="stroke: none; fill: red; font-family: sans; font-size: 24.000000px">
<text x="0.000000" y="-214.000000" text-anchor="middle">0</text>
<text x="76.000000" y="-190.000000" text-anchor="middle">1</text>
<text x="136.800000" y="-166.000000" text-anchor="middle">2</text>
<text x="380.000000" y="-214.000000" text-anchor="middle">ω</text>
<text x="432.709677" y="-178.000000" text-anchor="middle">ω+1</text>
<text x="643.548387" y="-214.000000" text-anchor="middle">ω2</text>
<text x="826.331946" y="-178.000000" text-anchor="middle">ω3</text>
</g>
<g style="stroke: black; stroke-width: 1.000000; fill: none">
<path d="M0.000000,-208.000000 v416.000000" />
<path d="M76.000000,-166.400000 v332.800000" />
<path d="M136.800000,-133.120000 v266.240000" />
<path d="M185.440000,-106.496000 v212.992000" />
<path d="M224.352000,-85.196800 v170.393600" />
<path d="M255.481600,-68.157440 v136.314880" />
<path d="M280.385280,-54.525952 v109.051904" />
<path d="M300.308224,-43.620762 v87.241523" />
<path d="M316.246579,-34.896609 v69.793219" />
<path d="M328.997263,-27.917287 v55.834575" />
<path d="M339.197811,-22.333830 v44.667660" />
<path d="M347.358249,-17.867064 v35.734128" />
<path d="M353.886599,-14.293651 v28.587302" />
<path d="M359.109279,-11.434921 v22.869842" />
<path d="M363.287423,-9.147937 v18.295873" />
<path d="M366.629939,-7.318349 v14.636699" />
<path d="M369.303951,-5.854680 v11.709359" />
<path d="M371.443161,-4.683744 v9.367487" />
<path d="M373.154529,-3.746995 v7.493990" />
<path d="M374.523623,-2.997596 v5.995192" />
<path d="M375.618898,-2.398077 v4.796153" />
<path d="M376.495119,-1.918461 v3.836923" />
<path d="M377.196095,-1.534769 v3.069538" />
<path d="M377.756876,-1.227815 v2.455631" />
<path d="M378.205501,-0.982252 v1.964504" />
<path d="M378.564401,-0.785802 v1.571604" />
<path d="M378.851520,-0.628641 v1.257283" />
<path d="M379.081216,-0.502913 v1.005826 L380.000000,0 z" />
<path d="M380.000000,-144.258065 v288.516129" />
<path d="M432.709677,-115.406452 v230.812903" />
<path d="M474.877419,-92.325161 v184.650323" />
<path d="M508.611613,-73.860129 v147.720258" />
<path d="M535.598968,-59.088103 v118.176206" />
<path d="M557.188852,-47.270483 v94.540965" />
<path d="M574.460759,-37.816386 v75.632772" />
<path d="M588.278284,-30.253109 v60.506218" />
<path d="M599.332305,-24.202487 v48.404974" />
<path d="M608.175521,-19.361990 v38.723979" />
<path d="M615.250095,-15.489592 v30.979183" />
<path d="M620.909753,-12.391673 v24.783347" />
<path d="M625.437480,-9.913339 v19.826677" />
<path d="M629.059661,-7.930671 v15.861342" />
<path d="M631.957406,-6.344537 v12.689074" />
<path d="M634.275603,-5.075629 v10.151259" />
<path d="M636.130159,-4.060504 v8.121007" />
<path d="M637.613805,-3.248403 v6.496806" />
<path d="M638.800721,-2.598722 v5.197445" />
<path d="M639.750255,-2.078978 v4.157956" />
<path d="M640.509881,-1.663182 v3.326364" />
<path d="M641.117582,-1.330546 v2.661092" />
<path d="M641.603743,-1.064437 v2.128873" />
<path d="M641.992672,-0.851549 v1.703099" />
<path d="M642.303815,-0.681239 v1.362479" />
<path d="M642.552729,-0.544992 v1.089983 L643.548387,0 z" />
<path d="M643.548387,-100.049948 v200.099896" />
<path d="M680.105099,-80.039958 v160.079917" />
<path d="M709.350468,-64.031967 v128.063933" />
<path d="M732.746764,-51.225573 v102.451147" />
<path d="M751.463800,-40.980459 v81.960917" />
<path d="M766.437429,-32.784367 v65.568734" />
<path d="M778.416333,-26.227494 v52.454987" />
<path d="M787.999455,-20.981995 v41.963990" />
<path d="M795.665953,-16.785596 v33.571192" />
<path d="M801.799152,-13.428477 v26.856953" />
<path d="M806.705711,-10.742781 v21.485563" />
<path d="M810.630958,-8.594225 v17.188450" />
<path d="M813.771155,-6.875380 v13.750760" />
<path d="M816.283313,-5.500304 v11.000608" />
<path d="M818.293040,-4.400243 v8.800486" />
<path d="M819.900821,-3.520195 v7.040389" />
<path d="M821.187046,-2.816156 v5.632311" />
<path d="M822.216026,-2.252925 v4.505849" />
<path d="M823.039210,-1.802340 v3.604679" />
<path d="M823.697757,-1.441872 v2.883743" />
<path d="M824.224595,-1.153497 v2.306995" />
<path d="M824.646065,-0.922798 v1.845596" />
<path d="M824.983241,-0.738238 v1.476477" />
<path d="M825.252982,-0.590591 v1.181181" />
<path d="M825.468775,-0.472473 v0.944945 L826.331946,0 z" />
<path d="M826.331946,-69.389480 v138.778960" />
<path d="M851.685794,-55.511584 v111.023168" />
<path d="M871.968873,-44.409267 v88.818534" />
<path d="M888.195336,-35.527414 v71.054828" />
<path d="M901.176507,-28.421931 v56.843862" />
<path d="M911.561443,-22.737545 v45.475090" />
<path d="M919.869392,-18.190036 v36.380072" />
<path d="M926.515751,-14.552029 v29.104057" />
<path d="M931.832839,-11.641623 v23.283246" />
<path d="M936.086509,-9.313298 v18.626597" />
<path d="M939.489445,-7.450639 v14.901277" />
<path d="M942.211793,-5.960511 v11.921022" />
<path d="M944.389672,-4.768409 v9.536818" />
<path d="M946.131975,-3.814727 v7.629454" />
<path d="M947.525818,-3.051782 v6.103563" />
<path d="M948.640892,-2.441425 v4.882851" />
<path d="M949.532951,-1.953140 v3.906280" />
<path d="M950.246599,-1.562512 v3.125024" />
<path d="M950.817517,-1.250010 v2.500019" />
<path d="M951.274251,-1.000008 v2.000016" />
<path d="M951.639638,-0.800006 v1.600012" />
<path d="M951.931948,-0.640005 v1.280010" />
<path d="M952.165796,-0.512004 v1.024008 L953.101188,0 z" />
<path d="M953.101188,-48.124962 v96.249924" />
<path d="M970.685309,-38.499970 v76.999939" />
<path d="M984.752606,-30.799976 v61.599951" />
<path d="M996.006443,-24.639981 v49.279961" />
<path d="M1005.009513,-19.711984 v39.423969" />
<path d="M1012.211968,-15.769588 v31.539175" />
<path d="M1017.973933,-12.615670 v25.231340" />
<path d="M1022.583505,-10.092536 v20.185072" />
<path d="M1026.271162,-8.074029 v16.148058" />
<path d="M1029.221288,-6.459223 v12.918446" />
<path d="M1031.581389,-5.167378 v10.334757" />
<path d="M1033.469470,-4.133903 v8.267806" />
<path d="M1034.979934,-3.307122 v6.614244" />
<path d="M1036.188306,-2.645698 v5.291396" />
<path d="M1037.155003,-2.116558 v4.233116" />
<path d="M1037.928361,-1.693247 v3.386493" />
<path d="M1038.547047,-1.354597 v2.709195" />
<path d="M1039.041996,-1.083678 v2.167356" />
<path d="M1039.437955,-0.866942 v1.733884" />
<path d="M1039.754722,-0.693554 v1.387108" />
<path d="M1040.008136,-0.554843 v1.109686" />
<path d="M1040.210867,-0.443874 v0.887749 L1041.021792,0 z" />
<path d="M1041.021792,-33.376990 v66.753980" />
<path d="M1053.217230,-26.701592 v53.403184" />
<path d="M1062.973581,-21.361273 v42.722547" />
<path d="M1070.778662,-17.089019 v34.178038" />
<path d="M1077.022727,-13.671215 v27.342430" />
<path d="M1082.017978,-10.936972 v21.873944" />
<path d="M1086.014179,-8.749578 v17.499155" />
<path d="M1089.211140,-6.999662 v13.999324" />
<path d="M1091.768709,-5.599730 v11.199459" />
<path d="M1093.814764,-4.479784 v8.959567" />
<path d="M1095.451608,-3.583827 v7.167654" />
<path d="M1096.761084,-2.867062 v5.734123" />
<path d="M1097.808664,-2.293649 v4.587299" />
<path d="M1098.646728,-1.834919 v3.669839" />
<path d="M1099.317179,-1.467936 v2.935871" />
<path d="M1099.853540,-1.174348 v2.348697" />
<path d="M1100.282629,-0.939479 v1.878957" />
<path d="M1100.625900,-0.751583 v1.503166" />
<path d="M1100.900517,-0.601266 v1.202533" />
<path d="M1101.120211,-0.481013 v0.962026 L1101.998985,0 z" />
<path d="M1101.998985,-23.148557 v46.297115" />
<path d="M1110.457111,-18.518846 v37.037692" />
<path d="M1117.223613,-14.815077 v29.630153" />
<path d="M1122.636814,-11.852061 v23.704123" />
<path d="M1126.967375,-9.481649 v18.963298" />
<path d="M1130.431824,-7.585319 v15.170639" />
<path d="M1133.203383,-6.068255 v12.136511" />
<path d="M1135.420630,-4.854604 v9.709209" />
<path d="M1137.194427,-3.883683 v7.767367" />
<path d="M1138.613466,-3.106947 v6.213894" />
<path d="M1139.748696,-2.485557 v4.971115" />
<path d="M1140.656881,-1.988446 v3.976892" />
<path d="M1141.383428,-1.590757 v3.181514" />
<path d="M1141.964666,-1.272605 v2.545211" />
<path d="M1142.429657,-1.018084 v2.036169" />
<path d="M1142.801649,-0.814467 v1.628935" />
<path d="M1143.099243,-0.651574 v1.303148" />
<path d="M1143.337318,-0.521259 v1.042518 L1144.289618,0 z" />
<path d="M1144.289618,-16.054645 v32.109289" />
<path d="M1150.155739,-12.843716 v25.687431" />
<path d="M1154.848635,-10.274973 v20.549945" />
<path d="M1158.602952,-8.219978 v16.439956" />
<path d="M1161.606405,-6.575982 v13.151965" />
<path d="M1164.009168,-5.260786 v10.521572" />
<path d="M1165.931378,-4.208629 v8.417258" />
<path d="M1167.469146,-3.366903 v6.733806" />
<path d="M1168.699361,-2.693522 v5.387045" />
<path d="M1169.683533,-2.154818 v4.309636" />
<path d="M1170.470870,-1.723854 v3.447709" />
<path d="M1171.100740,-1.379083 v2.758167" />
<path d="M1171.604636,-1.103267 v2.206534" />
<path d="M1172.007752,-0.882613 v1.765227" />
<path d="M1172.330246,-0.706091 v1.412181" />
<path d="M1172.588240,-0.564873 v1.129745" />
<path d="M1172.794636,-0.451898 v0.903796 L1173.620219,0 z" />
<path d="M1173.620219,-11.134673 v22.269346" />
<path d="M1177.688657,-8.907738 v17.815477" />
<path d="M1180.943408,-7.126191 v14.252381" />
<path d="M1183.547208,-5.700953 v11.401905" />
<path d="M1185.630249,-4.560762 v9.121524" />
<path d="M1187.296681,-3.648610 v7.297219" />
<path d="M1188.629827,-2.918888 v5.837775" />
<path d="M1189.696343,-2.335110 v4.670220" />
<path d="M1190.549557,-1.868088 v3.736176" />
<path d="M1191.232127,-1.494470 v2.988941" />
<path d="M1191.778184,-1.195576 v2.391153" />
<path d="M1192.215029,-0.956461 v1.912922" />
<path d="M1192.564505,-0.765169 v1.530338" />
<path d="M1192.844086,-0.612135 v1.224270" />
<path d="M1193.067751,-0.489708 v0.979416 L1193.962410,0 z" />
<path d="M1193.962410,-7.722434 v15.444869" />
<path d="M1196.784069,-6.177948 v12.355895" />
<path d="M1199.041396,-4.942358 v9.884716" />
<path d="M1200.847257,-3.953886 v7.907773" />
<path d="M1202.291947,-3.163109 v6.326218" />
<path d="M1203.447698,-2.530487 v5.060975" />
<path d="M1204.372299,-2.024390 v4.048780" />
<path d="M1205.111980,-1.619512 v3.239024" />
<path d="M1205.703725,-1.295610 v2.591219" />
<path d="M1206.177121,-1.036488 v2.072975" />
<path d="M1206.555837,-0.829190 v1.658380" />
<path d="M1206.858811,-0.663352 v1.326704" />
<path d="M1207.101189,-0.530682 v1.061363 L1208.070704,0 z" />
<path d="M1208.070704,-5.355882 v10.711764" />
<path d="M1210.027661,-4.284706 v8.569411" />
<path d="M1211.593226,-3.427764 v6.855529" />
<path d="M1212.845679,-2.742212 v5.484423" />
<path d="M1213.847640,-2.193769 v4.387538" />
<path d="M1214.649210,-1.755015 v3.510031" />
<path d="M1215.290466,-1.404012 v2.808025" />
<path d="M1215.803470,-1.123210 v2.246420" />
<path d="M1216.213874,-0.898568 v1.797136" />
<path d="M1216.542197,-0.718854 v1.437709" />
<path d="M1216.804855,-0.575083 v1.150167" />
<path d="M1217.014982,-0.460067 v0.920134 L1217.855488,0 z" />
<path d="M1217.855488,-3.714563 v7.429127" />
<path d="M1219.212732,-2.971651 v5.943301" />
<path d="M1220.298528,-2.377321 v4.754641" />
<path d="M1221.167164,-1.901856 v3.803713" />
<path d="M1221.862073,-1.521485 v3.042970" />
<path d="M1222.418000,-1.217188 v2.434376" />
<path d="M1222.862742,-0.973750 v1.947501" />
<path d="M1223.218536,-0.779000 v1.558001" />
<path d="M1223.503170,-0.623200 v1.246401" />
<path d="M1223.730878,-0.498560 v0.997120 L1224.641709,0 z" />
<path d="M1224.641709,-2.576229 v5.152459" />
<path d="M1225.583024,-2.060984 v4.121967" />
<path d="M1226.336076,-1.648787 v3.297574" />
<path d="M1226.938517,-1.319029 v2.638059" />
<path d="M1227.420470,-1.055224 v2.110447" />
<path d="M1227.806033,-0.844179 v1.688358" />
<path d="M1228.114483,-0.675343 v1.350686" />
<path d="M1228.361243,-0.540274 v1.080549 L1229.348282,0 z" />
<path d="M1229.348282,-1.786740 v3.573479" />
<path d="M1230.001130,-1.429392 v2.858784" />
<path d="M1230.523407,-1.143513 v2.287027" />
<path d="M1230.941230,-0.914811 v1.829621" />
<path d="M1231.275487,-0.731849 v1.463697" />
<path d="M1231.542894,-0.585479 v1.170958" />
<path d="M1231.756819,-0.468383 v0.936766 L1232.612518,0 z" />
<path d="M1232.612518,-1.239190 v2.478381" />
<path d="M1233.065300,-0.991352 v1.982705" />
<path d="M1233.427524,-0.793082 v1.586164" />
<path d="M1233.717304,-0.634466 v1.268931" />
<path d="M1233.949128,-0.507572 v1.015145 L1234.876424,0 z" />
<path d="M1234.876424,-0.859439 v1.718877" />
<path d="M1235.190450,-0.687551 v1.375102" />
<path d="M1235.441670,-0.550041 v1.100081" />
<path d="M1235.642647,-0.440033 v0.880065 L1236.446552,0 z" />
<path d="M1236.446552,-0.596062 v1.192124" />
<path d="M1236.664344,-0.476850 v0.953700 L1237.535512,0 z" />
<path d="M1237.535512,-0.413398 v0.826796 L1240.000000,0 z" />
</g>
</g>
</svg>
