<svg width="1280" height="480" style="stroke-linecap: round; stroke-linejoin: round" version="1.1" xmlns="http://www.w3.org/2000/svg">
<g transform="translate(20.000000, 264.000000)">
<g style="stroke: red; stroke-width: 0.5; fill: none">
<line x1="0.000000" y1="0" x2="0.000000" y2="-208.000000" />
<line x1="248.000000" y1="0" x2="248.000000" y2="-184.000000" />
<line x1="446.400000" y1="0" x2="446.400000" y2="-160.000000" />
</g>
<g style="stroke: none; fill: red; font-family: sans; font-size: 24.000000px">
<text x="0.000000" y="-214.000000" text-anchor="middle">0</text>
<text x="248.000000" y="-190.000000" text-anchor="middle">1</text>
<text x="446.400000" y="-166.000000" text-anchor="middle">2</text>
</g>
<g style="stroke: black; stroke-width: 1.000000; fill: none">
<path d="M0.000000,-208.000000 v416.000000" />
<path d="M248.000000,-166.400000 v332.800000" />
<path d="M446.400000,-133.120000 v266.240000" />
<path d="M605.120000,-106.496000 v212.992000" />
<path d="M732.096000,-85.196800 v170.393600" />
<path d="M833.676800,-68.157440 v136.314880" />
<path d="M914.941440,-54.525952 v109.051904" />
<path d="M979.953152,-43.620762 v87.241523" />
<path d="M1031.962522,-34.896609 v69.793219" />
<path d="M1073.570017,-27.917287 v55.834575" />
<path d="M1106.856014,-22.333830 v44.667660" />
<path d="M1133.484811,-17.867064 v35.734128" />
<path d="M1154.787849,-14.293651 v28.587302" />
<path d="M1171.830279,-11.434921 v22.869842" />
<path d="M1185.464223,-9.147937 v18.295873" />
<path d="M1196.371379,-7.318349 v14.636699" />
<path d="M1205.097103,-5.854680 v11.709359" />
<path d="M1212.077682,-4.683744 v9.367487" />
<path d="M1217.662146,-3.746995 v7.493990" />
<path d="M1222.129717,-2.997596 v5.995192" />
<path d="M1225.703773,-2.398077 v4.796153" />
<path d="M1228.563019,-1.918461 v3.836923" />
<path d="M1230.850415,-1.534769 v3.069538" />
<path d="M1232.680332,-1.227815 v2.455631" />
<path d="M1234.144266,-0.982252 v1.964504" />
<path d="M1235.315412,-0.785802 v1.571604" />
<path d="M1236.252330,-0.628641 v1.257283" />
<path d="M1237.001864,-0.502913 v1.005826" />
<path d="M1237.601491,-0.402331 v0.804661 L1240.000000,0 z" />
</g>
</g>
</svg>
